<svg width="39" height="24" viewBox="0 0 39 24" fill="none" xmlns="http://www.w3.org/2000/svg">
<path fill-rule="evenodd" clip-rule="evenodd" d="M32.9396 4.59554C32.9886 4.84304 33.0647 5.09562 33.1677 5.35329C33.0845 5.14534 33.019 4.94055 32.9709 4.73921C32.9595 4.69107 32.949 4.64327 32.9396 4.59554ZM32.1491 14.7531C32.1516 14.7444 32.1542 14.7356 32.1568 14.7268C32.4218 13.7256 32.8448 12.8324 33.4258 12.0472C33.8429 11.4801 34.4249 10.905 35.1718 10.3219C35.1368 10.3493 35.1021 10.3765 35.0678 10.4038C34.3706 10.9588 33.8233 11.5067 33.4258 12.0472C32.8535 12.8206 32.4345 13.6986 32.1689 14.6815C32.1666 14.6899 32.1643 14.6983 32.1621 14.7068C32.1603 14.7134 32.1586 14.7202 32.1568 14.7268L32.1491 14.7531ZM32.6343 6.68345C33.1451 7.64524 33.8736 8.49793 34.8171 9.24198L26.6411 9.27973L0.292917 9.31858L0.29305 10.4815L26.6468 10.4427L34.8296 10.4049C34.1916 10.9272 33.6815 11.4461 33.302 11.9621C32.7098 12.7625 32.2795 13.6718 32.0102 14.6884L32.0028 14.7133L31.9612 14.8564L33.1268 15.1582L33.1629 15.0113C33.2145 14.8014 33.2788 14.5828 33.356 14.3553C33.4864 13.9857 33.6462 13.6229 33.8355 13.2667C34.6499 11.8322 35.8216 10.8306 37.3543 10.2563C37.4065 10.2432 37.4543 10.23 37.4972 10.2164L37.6018 10.1833L37.6018 9.4478L37.4975 9.41457C37.1073 9.29026 36.701 9.10766 36.2786 8.86548C34.8344 8.00576 33.8473 6.82039 33.3115 5.3057L33.3094 5.3003C33.2093 5.05004 33.1359 4.80588 33.0887 4.56782L33.058 4.4128L31.8914 4.71488L31.9229 4.85202C32.0622 5.45944 32.2998 6.07 32.6343 6.68345Z" fill="#D9D9DC"/>
</svg>
