<svg width="39" height="24" viewBox="0 0 39 24" fill="none" xmlns="http://www.w3.org/2000/svg">
<path fill-rule="evenodd" clip-rule="evenodd" d="M5.79089 4.59554C5.74184 4.84304 5.66579 5.09562 5.56276 5.35329C5.64592 5.14534 5.71151 4.94055 5.75952 4.73921C5.77098 4.69107 5.78144 4.64327 5.79089 4.59554ZM6.58141 14.7531C6.57888 14.7444 6.57629 14.7356 6.57364 14.7268C6.30866 13.7256 5.88568 12.8324 5.30472 12.0472C4.88759 11.4801 4.30558 10.905 3.55864 10.3219C3.59367 10.3493 3.62836 10.3765 3.66269 10.4038C4.35984 10.9588 4.90717 11.5067 5.30472 12.0472C5.87694 12.8206 6.29592 13.6986 6.56159 14.6815C6.56386 14.6899 6.56614 14.6983 6.5684 14.7068C6.57014 14.7134 6.57191 14.7202 6.57364 14.7268L6.58141 14.7531ZM6.09618 6.68345C5.58541 7.64524 4.85682 8.49793 3.9134 9.24198L12.0894 9.27973L38.4376 9.31858L38.4374 10.4815L12.0836 10.4427L3.90092 10.4049C4.53887 10.9272 5.04896 11.4461 5.42847 11.9621C6.02064 12.7625 6.45097 13.6718 6.7203 14.6884L6.72763 14.7133L6.76932 14.8564L5.60364 15.1582L5.56753 15.0113C5.51597 14.8014 5.45164 14.5828 5.37445 14.3553C5.24407 13.9857 5.08428 13.6229 4.89494 13.2667C4.08059 11.8322 2.90884 10.8306 1.37619 10.2563C1.32392 10.2432 1.2762 10.23 1.23331 10.2164L1.12863 10.1833L1.12862 9.4478L1.23294 9.41457C1.62318 9.29026 2.02946 9.10766 2.45186 8.86548C3.89603 8.00576 4.88322 6.82039 5.41895 5.3057L5.42109 5.3003C5.52119 5.05004 5.59457 4.80588 5.64175 4.56782L5.67245 4.4128L6.83906 4.71488L6.80758 4.85202C6.66823 5.45944 6.43063 6.07 6.09618 6.68345Z" fill="#D9D9DC"/>
</svg>
