<svg width="101" height="51" viewBox="0 0 101 51" fill="none" xmlns="http://www.w3.org/2000/svg">
<path d="M64.5526 11.6948L64.4601 11.6168C65.2101 11.0179 69.0182 11.2022 68.0593 12.035C67.5285 12.5666 65.0663 17.5528 65.0663 19.2256C65.0663 19.541 65.1861 19.7252 65.3745 19.7252C66.6621 19.5303 67.3504 17.7903 66.4977 15.9439C67.0426 15.8557 67.6002 15.9646 68.0765 16.2522C68.1221 16.016 68.1803 15.7691 68.2511 15.5116C68.2223 15.1426 68.1282 14.7823 67.9737 14.4484C67.9737 14.4484 68.3847 14.3315 69.0627 13.4207C69.2294 13.1014 69.4292 12.802 69.6586 12.5276C71.4257 10.4013 74.816 9.69252 75.8056 11.4645C77.47 6.46758 80.326 0.754847 82.2301 0C82.4972 0 84.4663 0.0177195 85.1957 2.55514C85.1957 2.58703 85.1444 2.61538 85.1101 2.64019C82.2815 5.12091 79.9733 8.71086 78.5076 12.6765C78.4497 13.2569 78.5199 13.8434 78.7131 14.3917C78.7131 14.3917 78.0282 14.7886 77.4186 16.355C77.2303 17.1807 77.0761 18.0171 76.97 18.8357L76.881 19.5055C76.8501 20.0548 77.0179 20.2923 77.5111 20.2958C78.9528 20.2958 79.9356 17.4394 78.511 15.9475C80.2849 15.4123 81.1068 16.72 81.1 17.7903C81.1 19.2539 79.2987 21.1393 76.881 21.1215C75.5111 21.1215 74.6858 20.3667 74.4838 18.3857C73.6653 19.587 72.5626 20.8947 70.5832 20.8664C69.4189 20.8664 68.4326 20.0584 68.0765 18.655C67.4517 19.4342 66.6388 20.0284 65.7204 20.3773C65.2163 20.63 64.6641 20.7632 64.104 20.7671C62.9842 20.7671 62.176 19.4701 62.6794 17.9604C62.6794 17.9604 61.4397 20.7955 59.1795 20.7955C57.7378 20.7955 56.7447 19.2787 56.7138 17.1736C56.7095 16.7235 56.745 16.2739 56.82 15.8305C56.8405 14.5512 56.5529 14.2606 56.5529 14.2606C56.8835 14.1807 57.1853 14.0049 57.4227 13.7538C57.4809 13.6191 57.5391 13.4845 57.6042 13.3463C59.0288 10.3623 63.9088 9.1822 64.5526 11.6948ZM63.1828 15.1607C62.8664 15.2977 62.516 15.3262 62.1828 15.2422C61.1109 14.9516 61.3986 13.2789 62.4088 13.3427C63.4841 14.4697 64.0047 11.1278 63.0116 11.0888C62.2445 11.0569 61.2411 12.4355 60.4397 14.1259C60.2789 14.7346 60.3411 15.3833 60.6144 15.9475C60.6144 15.9475 59.9637 15.8305 59.2446 17.6521C58.9672 19.0342 59.0665 20.0867 59.8302 20.0903C60.6966 20.0903 62.2616 17.2233 63.2547 14.98L63.2033 15.1501L63.1828 15.1607ZM45.4848 32.7738C44.6115 35.4317 42.1972 38.0223 39.0363 38.0046C37.0022 38.0046 35.9303 36.9414 35.5262 35.5239C34.9307 36.2673 34.1876 36.8695 33.3474 37.2896C32.5071 37.7097 31.5894 37.9378 30.6565 37.9585C27.232 37.9373 29.6291 30.5164 31.3037 28.8188C30.1599 28.8188 28.5641 30.7538 27.4203 33.0715C27.3013 33.448 27.3013 33.8539 27.4203 34.2304C27.1223 34.3469 26.8639 34.5515 26.6772 34.8186C26.293 35.8242 26.0731 36.8889 26.0265 37.9691C26.0265 37.9691 23.3246 36.4559 24.1601 31.1862C24.2252 30.8318 24.304 30.4419 24.3827 30.0663C24.6704 28.4574 24.3827 28.1278 24.3827 28.1278C24.3827 28.1278 24.7252 28.0853 25.1978 27.3056C27.0094 22.2768 30.2216 17.4394 31.3619 16.7129C31.9167 16.4684 34.3892 17.2552 34.629 19.1937C30.3038 22.8616 27.3963 29.8182 26.684 32.7348C29.362 27.784 31.8482 27.4686 32.2284 27.4722C33.6906 27.4438 34.605 28.5353 34.6016 29.2796C34.0432 29.9946 33.5545 30.765 33.1427 31.5795C33.0365 31.7709 32.9235 31.9694 32.8277 32.1714C32.2763 33.4259 32.6804 34.2374 32.6804 34.2374C32.1735 34.3862 31.7334 34.715 31.4373 35.1659C30.9476 36.4205 30.7524 37.3773 31.2078 37.3809C33.2181 37.3809 33.879 34.6237 33.8893 33.1282C34.1156 33.0014 34.3707 32.9398 34.6279 32.9497C34.8851 32.9597 35.135 33.0409 35.3515 33.1849C35.4177 32.6284 35.5323 32.0792 35.694 31.5441C35.807 30.5376 35.6221 30.3037 35.6221 30.3037C35.6221 30.3037 35.9371 30.2329 36.4919 29.5524C36.8534 28.838 37.3293 28.1921 37.8994 27.6423C38.7418 26.8733 39.8514 27.015 40.7452 27.341L40.7829 27.3198H40.8171C40.903 27.2782 40.991 27.2415 41.0808 27.2099C41.2379 27.1584 41.3997 27.1239 41.5637 27.1071C41.6872 27.0884 41.8122 27.0824 41.9369 27.0894C42.0446 27.0881 42.1522 27.0952 42.2588 27.1107C45.1457 27.1284 46.1251 29.237 45.7656 31.5902C45.9573 31.4165 46.1423 31.2358 46.3169 31.0373C46.3169 30.5235 46.2039 30.3888 46.2039 30.3888C46.2039 30.3888 46.6388 30.2896 47.3991 29.1945C47.6974 28.4007 47.8753 27.5639 47.9265 26.7138C48.7209 26.6642 50.5154 25.9802 51.2003 27.0221C51.4044 27.3678 51.4856 27.7764 51.4298 28.1774C51.9544 27.881 52.5444 27.7308 53.142 27.7415C55.2618 27.7415 57.7241 28.8507 56.6556 32.2422C55.8406 34.8222 53.029 38.1038 49.762 38.0826C48.31 38.0826 48.0497 36.665 47.9949 35.7011L47.3546 37.31C46.9516 38.1416 46.6271 39.0116 46.3854 39.9076L47.4128 39.8722C48.3511 39.8722 49.2792 39.8509 50.1969 39.8722C51.9449 39.9326 53.6871 40.1114 55.4125 40.4073C55.5836 37.6489 56.1611 34.9336 57.1248 32.3556C57.5015 30.5447 57.2104 30.1797 57.2104 30.1797C57.2104 30.1797 57.5871 30.0982 58.2378 29.2406C58.5428 28.4373 58.7242 27.5894 58.7754 26.728C59.5699 26.6783 61.3644 25.9944 62.0493 27.0363C62.2537 27.3819 62.3348 27.7906 62.2787 28.1916C62.8034 27.8953 63.3934 27.7451 63.991 27.7557C66.1073 27.7557 68.573 28.8649 67.5046 32.2564C66.6895 34.8364 63.878 38.118 60.611 38.0967C59.159 38.0967 58.8987 36.6792 58.8439 35.7152L58.2035 37.3242C57.6888 38.3996 57.3112 39.5396 57.0803 40.7157L57.2755 40.7617L57.8439 40.8999C58.6086 41.0787 59.3595 41.3156 60.0904 41.6087C60.7837 41.882 61.4435 42.2389 62.0561 42.6719C62.6437 43.0804 63.1362 43.6191 63.4978 44.2489C63.661 44.5518 63.7766 44.8795 63.8403 45.2199C63.8969 45.5345 63.9038 45.8564 63.8608 46.1732C63.8564 46.2416 63.8449 46.3094 63.8266 46.3752L63.8026 46.4816L63.7752 46.5879C63.7397 46.7177 63.6974 46.8455 63.6485 46.9706C63.5602 47.1992 63.4513 47.4187 63.3232 47.6262C63.1127 47.9901 62.8317 48.305 62.4979 48.5512C62.2584 48.725 61.9867 48.8457 61.7 48.9056C61.5275 48.9409 61.3512 48.9516 61.176 48.9375C61.337 48.8666 61.4979 48.817 61.652 48.7496C61.8906 48.6412 62.1051 48.4832 62.2821 48.2854C62.5136 48.021 62.6959 47.7146 62.8198 47.3817C62.9777 46.9804 63.0535 46.5496 63.0424 46.1165C63.0307 45.894 62.988 45.6744 62.9157 45.4645C62.8342 45.2412 62.7186 45.033 62.5732 44.8478C61.9773 44.0646 60.861 43.5224 59.5494 43.1822C58.8669 43.0028 58.1736 42.8714 57.4741 42.7888L56.8953 42.7144C56.8268 44.986 57.5802 46.3681 57.8097 46.5701C57.4672 46.5914 56.683 46.1165 56.0974 44.9435L53.8338 45.1561C53.0051 45.2164 52.0017 45.3298 50.851 45.4396C49.7004 45.5495 48.4093 45.7161 47.0018 45.9004L46.6423 45.9464C46.7259 46.1534 46.8416 46.3449 46.9847 46.5134C46.6352 46.4664 46.3133 46.2917 46.0772 46.0208L44.8101 46.2016C44.0567 46.3221 43.2725 46.4355 42.4712 46.556C42.0716 46.6198 41.6664 46.6918 41.2555 46.7721C40.8445 46.843 40.4301 46.9104 40.0089 46.9883L37.4405 47.4668C35.7043 47.8211 33.903 48.1755 32.0708 48.5512C30.2387 48.9268 28.386 49.3131 26.4957 49.664C24.6053 50.0148 22.7287 50.3267 20.8418 50.5676C20.3715 50.6267 19.9023 50.6787 19.4343 50.7236C18.9651 50.7767 18.4994 50.8157 18.0336 50.8547C17.1056 50.9291 16.1844 50.9681 15.2769 51C14.8203 51 14.3705 51 13.9276 51C13.4756 51 13.0304 51 12.592 50.9752C11.753 50.9398 10.8592 50.8795 10.0236 50.7696C8.44045 50.584 6.88334 50.2094 5.38338 49.6533C4.09979 49.1823 2.90083 48.4937 1.83555 47.6156C1.3977 47.2584 0.992992 46.8598 0.626691 46.4248C0.606144 46.4 0.571898 46.3859 0.571898 46.354C0.257157 45.8401 0.0614311 45.258 0 44.6529C0.11301 44.8088 0.955447 45.7515 1.13352 45.9181C1.51525 46.278 1.9292 46.5996 2.36978 46.8785C3.43699 47.5325 4.59064 48.0219 5.79432 48.3315C7.22679 48.695 8.69049 48.911 10.164 48.9764L10.7599 49.0048H11.3592H12.616C13.0441 49.0048 13.4516 48.98 13.8797 48.9658C14.3077 48.9516 14.7461 48.9233 15.181 48.8985C16.0485 48.8418 16.9344 48.7662 17.8384 48.6717C18.2871 48.6256 18.7391 48.5795 19.1911 48.5193C19.6432 48.459 20.0986 48.4023 20.5609 48.3385C21.4742 48.211 22.3942 48.0668 23.3211 47.9062C24.248 47.7455 25.1761 47.5825 26.1053 47.4171L31.677 46.4248C33.516 46.0705 35.3481 45.7869 37.1255 45.5389C38.0136 45.4089 38.888 45.2908 39.7486 45.1845C40.6151 45.0817 41.4609 44.9896 42.2657 44.9222C43.2657 44.8301 44.2382 44.7592 45.1663 44.7167C44.8929 44.1043 44.7082 43.4535 44.6183 42.7853C42.8376 42.9731 41.026 43.1999 39.2007 43.4586C37.3241 43.7102 35.4337 43.9867 33.5639 44.2099C32.629 44.3269 31.6976 44.4226 30.7695 44.5182C29.8415 44.6139 28.9271 44.6848 28.0299 44.7238C26.2183 44.8336 24.4581 44.8478 22.7869 44.7805C22.3691 44.7592 21.9582 44.745 21.5541 44.7061L20.9479 44.6529H20.7082L20.3452 44.621C20.15 44.5962 19.9685 44.582 19.7733 44.5537L19.1774 44.4722C18.9822 44.4474 18.7939 44.4084 18.609 44.3729C18.424 44.3375 18.2357 44.3056 18.0542 44.2631C17.358 44.1075 16.6718 43.9075 15.9995 43.6642C15.3855 43.4344 14.7919 43.1498 14.2255 42.8136C13.2834 42.2803 12.4907 41.5038 11.9243 40.5597C11.5775 39.9558 11.3788 39.2732 11.3455 38.5716C11.3373 38.393 11.3441 38.2139 11.3661 38.0365C11.3661 37.916 11.3969 37.8557 11.3969 37.8557C11.4041 38.0956 11.4397 38.3336 11.503 38.5645C11.6669 39.1866 11.9668 39.7614 12.3797 40.2443C13.0178 40.9539 13.812 41.4937 14.6947 41.8178C15.2389 42.0345 15.7989 42.2064 16.3693 42.3317C17.0131 42.4657 17.6637 42.5627 18.3179 42.6223C19.8076 42.7333 21.3028 42.7427 22.7937 42.6506C24.3964 42.5726 26.0847 42.4273 27.8347 42.2218C28.7011 42.1119 29.5983 42.0092 30.4955 41.8674L33.2352 41.467C35.0776 41.1834 36.9645 40.8999 38.872 40.6306C40.7794 40.3613 42.6869 40.1486 44.5875 40.014C44.7811 37.4186 45.3347 34.8657 46.2313 32.4336L46.0498 32.8801C46.1149 32.5789 46.1662 32.3131 46.2039 32.0792C45.9862 32.334 45.7454 32.5666 45.4848 32.7738ZM81.3534 29.3752C79.535 32.5009 76.244 35.8712 74.7132 36.8776C73.3708 37.8309 71.7441 38.5893 70.1963 38.2597C68.1895 37.8345 67.258 36.0767 67.4566 34.0071L67.4326 34.0567L67.46 33.9504C67.5079 33.5079 67.6009 33.072 67.7374 32.6498C67.8539 31.7922 67.6998 31.5866 67.6998 31.5866C67.9929 31.4799 68.253 31.2939 68.4532 31.0479C69.912 28.4326 72.3777 26.7528 75.4837 27.3269C76.0552 27.4065 76.5735 27.7152 76.9271 28.1865C77.2807 28.6578 77.4412 29.254 77.3741 29.8466C77.3501 30.2103 77.2751 30.5684 77.1515 30.9097C77.1482 31.1344 77.189 31.3574 77.2714 31.5654C77.0366 31.6181 76.8222 31.7414 76.6549 31.9197C75.6481 33.4861 73.5728 34.8364 70.4908 34.8186L70.9668 34.1099C72.251 34.1099 73.34 33.068 74.1242 31.8205C74.1927 30.9912 74.0317 30.7892 74.0317 30.7892C74.0317 30.7892 74.4187 30.7006 75.0899 29.8076C75.4872 28.6771 75.5728 27.7805 75.2543 27.7805C74.0763 27.7805 72.5386 29.7119 71.4873 31.8595C71.3092 32.6321 71.525 32.9227 71.525 32.9227C71.525 32.9227 71.2339 32.9581 70.8127 33.4613C70.073 35.5877 70.0216 37.4872 71.4736 37.4978C72.4188 37.4978 73.4838 36.867 74.4084 36.1157C74.7303 35.4069 75.3707 34.4891 75.3707 34.2871C77.083 34.1736 79.1377 31.4519 80.4493 29.0421C79.0795 28.5708 77.4392 27.8514 77.4494 25.7676C77.4359 25.0471 77.6927 24.3492 78.1659 23.8206C78.6391 23.2919 79.2918 22.9736 79.987 22.9325C80.713 22.9325 82.6239 23.6802 82.6136 25.7357C82.5826 26.4242 82.4245 27.1003 82.1479 27.7273L82.415 27.7947C82.6308 27.8478 82.8157 27.9081 82.9766 27.9648C83.1602 28.0257 83.3389 28.1015 83.5109 28.1916C84.7163 28.4645 85.8053 28.9004 85.7985 30.0309C85.7916 31.1613 85.0759 32.2103 84.3088 33.1424C83.6889 34.1382 83.9663 34.6875 83.9663 34.6875C83.9663 34.6875 83.5074 34.567 82.8294 35.0419C82.6582 35.3345 82.542 35.6579 82.4869 35.9952C82.2986 37.2108 83.1068 38.0152 83.9629 38.0188C84.819 38.0223 85.6375 37.0088 86.0587 35.818C85.3156 35.5664 85.3738 33.9965 86.4012 34.0035C86.6104 33.9815 86.821 34.0265 87.0048 34.1323C87.1885 34.2382 87.3364 34.3998 87.4285 34.5954C89.723 33.394 95.5447 29.5241 99.2877 30.4526C101.017 30.8814 100.955 34.6379 101 35.2014C101 35.3006 100.911 35.088 100.836 35.0242C96.7604 31.7957 90.2195 34.4465 87.4799 35.5061C87.4522 35.6852 87.411 35.8618 87.3566 36.0342C86.6957 38.1818 84.8738 38.5751 83.7335 38.5681C81.7267 38.5681 79.9288 37.5049 79.9391 35.3786V35.0844C79.9637 34.5794 80.0536 34.08 80.2062 33.5995C80.2267 32.8022 79.963 32.5966 79.963 32.5966C80.3984 32.4865 80.7898 32.2387 81.0829 31.8878C81.35 31.5335 81.6205 31.2322 81.8363 30.9735C82.0782 30.7511 82.242 30.452 82.302 30.123C82.3054 29.7899 81.9116 29.5808 81.3534 29.3752ZM80.326 26.8733C80.326 26.8733 80.35 26.93 80.3808 27.0292C80.41 27.075 80.442 27.1188 80.4767 27.1603L80.5486 27.2312L80.6377 27.295C80.6708 27.3181 80.7064 27.3372 80.7438 27.3517L80.8637 27.4048L80.9938 27.4545L81.1377 27.497H81.1753C81.7096 26.2141 81.8808 25.2608 81.4493 25.2608C80.7644 25.2608 80.3295 25.8951 80.3226 26.852L80.326 26.8733ZM86.2026 35.2297C86.2554 35.271 86.3187 35.2955 86.3848 35.3002C86.4509 35.305 86.5168 35.2899 86.5747 35.2567C86.6326 35.2234 86.68 35.1735 86.7111 35.113C86.7422 35.0525 86.7556 34.984 86.7498 34.9157C86.744 34.8474 86.7192 34.7824 86.6784 34.7284C86.6376 34.6744 86.5826 34.6338 86.52 34.6116C86.4574 34.5893 86.3898 34.5863 86.3256 34.6029C86.2614 34.6195 86.2032 34.6551 86.158 34.7052C86.0991 34.783 86.0722 34.8817 86.0831 34.9798C86.094 35.078 86.1418 35.1678 86.2162 35.2297H86.2026ZM46.9162 44.6529C48.3511 44.5962 49.6558 44.6104 50.8305 44.6246C52.0051 44.6387 53.0085 44.6919 53.8406 44.7415C54.6728 44.7911 55.3269 44.8514 55.7721 44.8868L56.0974 44.9187C55.7557 44.1894 55.5401 43.4038 55.4604 42.5975C55.3748 42.5975 55.2858 42.5975 55.1968 42.5762C53.5289 42.442 51.8556 42.3947 50.1832 42.4344C49.3168 42.4522 48.4264 42.4947 47.5292 42.5514C47.0338 42.5845 46.535 42.6234 46.0327 42.6683C46.0254 43.3355 46.092 44.0014 46.2313 44.6529C46.4505 44.6529 46.6765 44.6529 46.9162 44.6529ZM50.3408 32.6781C50.3408 32.6781 49.7072 32.7774 48.9709 33.7413C49.1544 33.6959 49.3455 33.695 49.5294 33.7386C49.7133 33.7821 49.885 33.869 50.0311 33.9925C50.1773 34.1159 50.2939 34.2726 50.372 34.4503C50.45 34.628 50.4874 34.822 50.4812 35.0171C50.0017 35.0171 48.7689 37.1009 49.899 37.2285C50.6798 37.3135 51.6113 35.7932 52.4674 34.0142C52.7037 32.5966 52.4674 32.3025 52.4674 32.3025C52.4674 32.3025 52.9263 32.2033 53.7105 31.0621C54.1797 29.6056 54.2687 28.4574 53.6728 28.2908C52.6078 27.9896 51.4811 28.8543 50.4538 30.5093C49.8921 31.9233 50.3408 32.664 50.3408 32.664V32.6781ZM61.039 30.9877C60.3541 32.2812 60.9055 32.9687 60.9055 32.9687C60.4834 33.0876 60.1053 33.3344 59.8199 33.6775L59.6178 33.8831H59.587C59.603 33.902 59.6235 33.8949 59.6487 33.8618C59.8365 33.796 60.0368 33.7774 60.233 33.8076C60.4292 33.8377 60.6156 33.9158 60.7769 34.0352C60.9381 34.1547 61.0696 34.3121 61.1605 34.4946C61.2513 34.677 61.2989 34.8792 61.2993 35.0844C60.8199 35.0844 59.587 37.1682 60.7171 37.2958C61.4431 37.3773 62.289 36.0625 63.1143 34.4607C63.3643 33.0148 63.1143 32.7065 63.1143 32.7065C63.1143 32.7065 63.6588 32.586 64.5766 31.1365C65.0971 29.6765 65.2615 28.5176 64.6759 28.3688C63.4636 28.0675 62.2787 28.9393 61.2513 30.6085C60.8861 31.2582 60.813 31.3905 61.0322 31.0054L61.039 30.9877ZM39.122 31.4697C39.0405 31.8904 39.0749 32.3263 39.2213 32.7277C39.2213 32.7277 38.8206 32.9297 38.3138 33.8831C37.9953 35.655 38.2282 37.2072 39.3788 37.2143C40.5294 37.2214 41.8068 35.7152 42.7314 33.9291L42.7486 33.8228C42.5202 33.8441 42.2817 33.8535 42.0328 33.8512C41.6381 33.8572 41.2464 33.7795 40.8818 33.6229C40.5172 33.4662 40.1875 33.2339 39.913 32.9404L39.122 31.4697ZM42.7177 32.2493C42.7177 32.2493 43.1115 32.1607 43.8102 31.2181C44.2759 29.5914 44.2964 28.2483 43.5602 28.142C41.163 27.7876 39.7932 33.0644 42.3992 33.0786C42.5399 33.0794 42.6805 33.0723 42.8205 33.0573C42.8513 32.3946 42.7212 32.2493 42.7212 32.2493H42.7177ZM16.9412 25.601C16.8487 26.2834 16.9687 26.9785 17.2837 27.5856C17.2837 27.5856 16.2221 28.0286 15.4207 29.843C14.3146 33.7023 14.1536 37.0371 15.6639 37.0477C18.0199 37.0477 19.9 31.5228 19.7733 30.3144C20.7733 30.2258 22.3451 31.3775 22.3383 32.7951C22.3383 34.8789 18.7254 38.6567 15.3762 37.9479C11.1469 37.0548 11.0613 31.9233 11.6092 28.7728L11.5544 28.9216L11.6126 28.7444C11.6606 28.4645 11.7154 28.1987 11.7736 27.9541C11.815 27.3464 11.6686 26.7408 11.3558 26.2247C11.6732 26.1369 11.9688 25.9798 12.2228 25.7641C12.4768 25.5483 12.6832 25.2788 12.8283 24.9737L12.9174 24.7824C12.9552 24.6744 12.9872 24.5644 13.0133 24.4528L12.9242 24.715C15.7769 18.6408 20.1158 16.5039 23.4684 17.482C28.0093 18.8109 26.1635 26.7315 23.1259 26.6961C22.3451 26.6961 20.7664 26.3807 20.5336 25.3706C22.2595 25.0163 25.7183 18.2439 23.5471 18.2297C21.1328 18.2297 18.6774 21.6602 16.9412 25.6081V25.601ZM46.6902 15.6781C46.6882 15.9262 46.7146 16.1736 46.769 16.4153C46.769 16.4153 46.1936 16.6456 45.495 17.7229C45.4146 17.9425 45.3449 18.166 45.2861 18.3927C44.6868 20.6077 45.2861 21.7169 45.519 22.1493C45.519 22.1493 42.2143 21.0861 42.8821 17.3686C42.9992 16.7256 43.1478 16.0893 43.3273 15.462C41.7691 14.6823 43.0499 12.4851 43.0499 12.4851C43.3802 12.7618 43.7812 12.9329 44.204 12.9777L44.4026 12.517C44.5758 11.8426 44.5687 11.1321 44.3821 10.4615C44.3821 10.4615 45.5978 10.4119 46.4368 8.66125L46.2073 9.12195C47.6285 6.86804 49.0463 5.36898 49.5668 5.0394C49.9572 4.86575 52.0119 5.85804 52.1729 7.21534C50.649 8.49468 49.0908 10.7309 47.8066 12.9139C49.9743 12.6304 55.7447 11.6523 57.1077 9.19992C56.8816 8.13675 56.5837 7.95247 56.5837 7.95247C56.8727 7.8158 57.1201 7.60015 57.2994 7.32875C56.7926 5.37607 54.3269 4.37315 51.3681 4.53262C45.8032 4.83031 39.9438 7.54138 39.9267 10.7132C38.6288 10.7132 37.9473 8.29268 37.9542 7.48468C37.9747 4.17115 42.8376 1.8818 48.1559 1.52387C56.796 0.956848 59.2685 4.98624 59.2446 8.11903V8.27851C59.3493 8.49837 59.4743 8.70725 59.6178 8.90223C59.6178 8.90223 59.3507 9.13967 59.022 9.48697C58.4158 11.3298 56.6248 12.9245 54.053 14.0373C55.0803 14.537 55.9776 15.4832 55.9673 16.8724C55.9609 17.3772 55.8848 17.8784 55.7413 18.3609C55.7774 18.8591 55.8931 19.3477 56.0837 19.8068C55.5214 19.9531 55.0004 20.2348 54.5632 20.6289C54.3711 20.8762 54.1665 21.1128 53.9502 21.3377C53.8909 21.4228 53.8338 21.5137 53.779 21.6106L53.8612 21.4263C51.0257 24.2366 45.9265 25.9129 41.9506 25.8703C38.1836 25.8455 35.9406 24.3358 35.9543 21.8161C35.9543 18.9633 39.9781 18.6869 39.9712 19.5445C38.8891 19.5445 38.259 20.0903 38.5192 21.001C38.9131 22.3902 42.7862 22.734 44.0464 22.7411C48.2038 22.7659 51.7106 21.1818 53.166 18.9917C53.2105 17.5918 52.9023 17.2871 52.9023 17.2871C53.2842 17.1988 53.6294 16.988 53.8886 16.6846C53.8612 15.3415 53.1489 14.8418 52.3544 14.661C50.5119 15.2242 48.6121 15.562 46.6936 15.6675L46.6902 15.6781ZM71.8092 15.9971C71.8092 15.9971 71.1585 15.8837 70.4394 17.6946C70.162 19.0696 70.251 20.1115 70.9839 20.1151C72.4085 20.1151 74.0043 17 74.8742 14.7319L74.8297 14.9268C74.4685 15.0687 74.0682 15.0598 73.7132 14.902C73.5132 14.8178 73.3483 14.663 73.248 14.4651C73.1476 14.2672 73.1182 14.0388 73.165 13.8206C73.2117 13.6024 73.3317 13.4083 73.5035 13.2728C73.6753 13.1374 73.8879 13.0692 74.1037 13.0805C74.9803 14.1649 75.8159 11.4042 74.4461 11.1313C73.5968 10.9648 72.4907 12.4355 71.6414 14.2322C71.4875 14.8255 71.5471 15.4565 71.8092 16.0077V15.9971Z" fill="#eed0ad"/>
</svg>
