<svg width="131" height="131" viewBox="0 0 131 131" fill="none" xmlns="http://www.w3.org/2000/svg">
<path opacity="0.2" d="M103.252 21.4193C102.608 20.8681 102.174 20.2494 101.95 19.5633C101.732 18.8823 101.717 18.1799 101.905 17.456C102.104 16.7312 102.494 16.0283 103.077 15.3473C103.659 14.6664 104.29 14.1745 104.97 13.8718C105.661 13.5682 106.36 13.4711 107.067 13.5806C107.779 13.6952 108.458 14.0281 109.102 14.5793C109.747 15.1305 110.181 15.7492 110.405 16.4354C110.629 17.1215 110.641 17.827 110.442 18.5518C110.255 19.2757 109.87 19.9782 109.287 20.6591C108.705 21.3401 108.068 21.8324 107.377 22.136C106.697 22.4387 106.001 22.5327 105.288 22.4181C104.575 22.3034 103.897 21.9705 103.252 21.4193ZM104.025 20.5164C104.7 21.1049 105.413 21.3246 106.161 21.1754C106.91 21.0262 107.615 20.5655 108.275 19.7933C108.935 19.0212 109.279 18.2567 109.305 17.5C109.331 16.7433 109.006 16.0707 108.33 15.4822C107.654 14.8937 106.945 14.6767 106.203 14.8311C105.465 14.9794 104.761 15.4401 104.089 16.2131C103.422 16.9801 103.076 17.7419 103.05 18.4986C103.024 19.2554 103.349 19.928 104.025 20.5164Z" fill="#D9D9DC"/>
<path opacity="0.2" d="M111.914 20.3891L112.75 21.3322L110.774 23.0829L112.867 25.4451L114.843 23.6944L115.678 24.6375L110.828 28.9347L109.993 27.9916L111.978 26.2329L109.885 23.8707L107.9 25.6294L107.064 24.6863L111.914 20.3891Z" fill="#D9D9DC"/>
<path opacity="0.2" d="M112.25 28.9756C112.277 29.0439 112.323 29.1241 112.387 29.2161C112.515 29.4003 112.665 29.4908 112.838 29.4877C113.022 29.4867 113.272 29.4112 113.586 29.2614C114.396 28.8852 115.702 28.1507 117.505 27.0579L120.149 30.8755L114.822 34.5653L114.112 33.5394L118.462 30.526L117.164 28.6518C115.549 29.5948 114.426 30.2073 113.794 30.4893C113.288 30.7136 112.871 30.8075 112.545 30.7712C112.222 30.7414 111.943 30.5555 111.706 30.2136C111.578 30.0294 111.467 29.8195 111.372 29.5837L112.25 28.9756Z" fill="#D9D9DC"/>
<path opacity="0.2" d="M122.729 37.6985C122.598 37.8774 122.439 38.0302 122.253 38.1568C122.077 38.2868 121.852 38.4253 121.577 38.5722L118.052 40.4544L117.532 39.4805L118.368 39.034C117.456 38.9224 116.757 38.4115 116.271 37.5011C116.052 37.0918 115.94 36.7029 115.934 36.3345C115.934 35.9622 116.026 35.6323 116.208 35.3447C116.39 35.0571 116.64 34.8285 116.957 34.6589C117.797 34.2105 118.603 34.3607 119.374 35.1095C119.591 35.3292 119.841 35.6267 120.123 36.0021C120.412 36.3737 120.7 36.7508 120.985 37.1332L121.18 37.3964C121.564 37.1642 121.793 36.8968 121.868 36.5942C121.942 36.2916 121.864 35.925 121.634 35.4945C121.461 35.1699 121.236 34.9272 120.96 34.7664C120.683 34.6056 120.367 34.5568 120.011 34.62L119.78 33.4237C120.364 33.2935 120.904 33.3542 121.401 33.6057C121.898 33.8572 122.318 34.3041 122.661 34.9463C122.943 35.4756 123.093 35.9762 123.109 36.4482C123.132 36.9164 123.006 37.3332 122.729 37.6985ZM117.278 37.2218C117.512 37.6593 117.817 37.959 118.193 38.1207C118.574 38.2894 118.936 38.3316 119.281 38.2472C119.517 38.2123 119.835 38.0874 120.238 37.8726L120.043 37.6094C119.812 37.2971 119.588 37.0042 119.369 36.7309C119.162 36.4609 118.979 36.2457 118.821 36.0853C118.6 35.8765 118.385 35.7373 118.176 35.6677C117.97 35.6052 117.762 35.6305 117.55 35.7436C117.31 35.8717 117.159 36.0654 117.098 36.3247C117.037 36.584 117.097 36.8831 117.278 37.2218Z" fill="#D9D9DC"/>
<path opacity="0.2" d="M126.392 41.6892C126.276 41.399 126.241 41.1031 126.284 40.8013C126.335 40.4966 126.454 40.221 126.64 39.9745C126.83 39.7355 127.069 39.5582 127.36 39.4428L127.728 40.3691C127.542 40.4431 127.409 40.5737 127.328 40.7609C127.247 40.9481 127.244 41.1347 127.318 41.3207C127.395 41.5141 127.526 41.6474 127.71 41.7206C127.897 41.8013 128.084 41.8046 128.27 41.7306L128.638 42.6569C128.348 42.7723 128.051 42.8045 127.746 42.7534C127.444 42.7097 127.17 42.5947 126.924 42.4084C126.685 42.2191 126.507 41.9794 126.392 41.6892ZM120.198 45.6143L124.383 43.9493L118.999 42.6011L118.621 41.6525L124.648 39.2549L125.096 40.382L120.989 42.016L126.299 43.4064L126.672 44.3438L120.646 46.7414L120.198 45.6143Z" fill="#D9D9DC"/>
<path opacity="0.2" d="M127.367 46.4846L127.682 47.7068L125.122 48.3668L125.911 51.4281L128.471 50.7681L128.786 51.9903L122.501 53.6103L122.186 52.3881L124.758 51.7251L123.969 48.6638L121.397 49.3268L121.082 48.1046L127.367 46.4846Z" fill="#D9D9DC"/>
<path opacity="0.2" d="M126.906 61.0593C126.78 61.3215 126.589 61.5301 126.331 61.6851C126.074 61.8481 125.791 61.9454 125.48 61.9772C125.059 62.0203 124.681 61.9424 124.347 61.7433C124.014 61.5522 123.743 61.2703 123.536 60.8974C123.338 60.5317 123.215 60.114 123.167 59.6445C123.104 59.0237 123.178 58.4492 123.389 57.921C123.6 57.3927 123.93 56.9609 124.378 56.6256L125.136 57.5492C124.532 58.0935 124.269 58.7397 124.345 59.4878C124.386 59.8857 124.506 60.1911 124.704 60.404C124.912 60.624 125.167 60.7186 125.469 60.6876C125.803 60.6535 126.009 60.4998 126.085 60.2265C126.171 59.9605 126.187 59.5728 126.135 59.0634L126.077 58.4904L127.091 58.3866L127.149 58.9477C127.193 59.3775 127.282 59.702 127.417 59.9214C127.561 60.148 127.78 60.2462 128.075 60.2161C128.353 60.1876 128.55 60.063 128.664 59.8422C128.786 59.6206 128.831 59.3507 128.798 59.0323C128.765 58.714 128.665 58.4026 128.497 58.0981C128.33 57.8015 128.126 57.5369 127.885 57.3042L128.659 56.4893C129.029 56.8053 129.328 57.1728 129.555 57.5918C129.784 58.0188 129.924 58.4829 129.975 58.9843C130.018 59.4061 129.982 59.7998 129.867 60.1655C129.759 60.5303 129.573 60.8308 129.308 61.067C129.043 61.3112 128.712 61.4537 128.314 61.4944C127.797 61.5473 127.328 61.4023 126.906 61.0593Z" fill="#D9D9DC"/>
<path opacity="0.2" d="M129.023 68.3837C128.821 68.4765 128.608 68.533 128.384 68.5534C128.168 68.5819 127.903 68.5936 127.591 68.5885L123.596 68.5237L123.614 67.4198L124.562 67.4352C123.818 66.895 123.455 66.109 123.472 65.0772C123.479 64.6132 123.57 64.2187 123.743 63.8934C123.924 63.5683 124.164 63.3242 124.463 63.161C124.762 62.9978 125.091 62.9192 125.451 62.925C126.403 62.9405 127.034 63.4628 127.346 64.492C127.429 64.7894 127.503 65.1706 127.567 65.6357C127.64 66.101 127.708 66.5701 127.772 67.0432L127.815 67.368C128.264 67.3513 128.594 67.2286 128.805 67C129.017 66.7714 129.127 66.4131 129.135 65.9252C129.141 65.5573 129.062 65.2359 128.898 64.9612C128.735 64.6866 128.482 64.4904 128.14 64.3729L128.519 63.2149C129.092 63.3842 129.535 63.6994 129.848 64.1605C130.16 64.6217 130.31 65.2162 130.299 65.9441C130.289 66.544 130.177 67.0543 129.962 67.4748C129.755 67.8955 129.442 68.1985 129.023 68.3837ZM124.488 65.3217C124.48 65.8176 124.601 66.2277 124.852 66.5518C125.103 66.8839 125.399 67.0967 125.742 67.1903C125.964 67.2739 126.304 67.3194 126.76 67.3268L126.717 67.0021C126.667 66.6173 126.613 66.2523 126.555 65.9073C126.504 65.5705 126.449 65.2935 126.388 65.0765C126.297 64.787 126.177 64.561 126.027 64.3986C125.878 64.2441 125.683 64.165 125.443 64.1611C125.171 64.1566 124.945 64.253 124.766 64.4501C124.587 64.6472 124.494 64.9378 124.488 65.3217Z" fill="#D9D9DC"/>
<path opacity="0.2" d="M129.992 70.6348L129.345 76.0684L122.91 75.3023L123.059 74.0511L128.314 74.6768L128.663 71.7455L123.408 71.1198L123.557 69.8687L129.992 70.6348Z" fill="#D9D9DC"/>
<path opacity="0.2" d="M121.366 82.0303L121.65 80.8521L126.025 81.9088L122.411 77.7027L122.651 76.7112L128.949 78.2328L128.665 79.4109L124.372 78.374L127.901 82.572L127.665 83.5518L121.366 82.0303Z" fill="#D9D9DC"/>
<path opacity="0.2" d="M119.807 85.9632C120.031 85.3553 120.36 84.8796 120.793 84.5364C121.234 84.196 121.738 83.998 122.304 83.9424C122.875 83.8971 123.473 83.9856 124.099 84.2078C124.727 84.4478 125.238 84.7727 125.632 85.1825C126.032 85.6026 126.285 86.0839 126.392 86.6264C126.499 87.1689 126.441 87.7403 126.22 88.3408C125.974 89.0089 125.594 89.517 125.082 89.8654C124.578 90.2165 124.013 90.3619 123.387 90.3017L123.492 89.0104C123.874 89.0148 124.209 88.9165 124.496 88.7155C124.78 88.522 124.985 88.2563 125.11 87.9186C125.314 87.3631 125.278 86.8722 125 86.4458C124.727 86.0297 124.273 85.7003 123.638 85.4575C122.99 85.227 122.425 85.1852 121.945 85.3321C121.464 85.4789 121.123 85.8263 120.921 86.3742C120.653 87.1023 120.812 87.711 121.399 88.2003L120.662 89.2971C120.144 88.8757 119.811 88.378 119.665 87.8039C119.519 87.2298 119.566 86.6163 119.807 85.9632Z" fill="#D9D9DC"/>
<path opacity="0.2" d="M109.292 103.744C109.843 103.1 110.462 102.665 111.148 102.442C111.829 102.224 112.532 102.209 113.256 102.396C113.98 102.595 114.683 102.986 115.364 103.568C116.045 104.151 116.537 104.782 116.84 105.462C117.143 106.153 117.24 106.852 117.131 107.558C117.016 108.271 116.683 108.95 116.132 109.594C115.581 110.239 114.962 110.673 114.276 110.896C113.59 111.12 112.885 111.133 112.16 110.934C111.436 110.746 110.733 110.361 110.052 109.779C109.371 109.197 108.879 108.56 108.576 107.868C108.273 107.188 108.179 106.492 108.293 105.78C108.408 105.067 108.741 104.389 109.292 103.744ZM110.195 104.516C109.607 105.192 109.387 105.904 109.536 106.653C109.685 107.402 110.146 108.106 110.918 108.767C111.69 109.427 112.455 109.77 113.212 109.796C113.968 109.822 114.641 109.498 115.229 108.822C115.818 108.146 116.035 107.437 115.88 106.694C115.732 105.957 115.271 105.252 114.498 104.581C113.731 103.914 112.97 103.568 112.213 103.542C111.456 103.516 110.784 103.84 110.195 104.516Z" fill="#D9D9DC"/>
<path opacity="0.2" d="M110.293 112.384L109.348 113.216L107.606 111.236L105.239 113.319L106.981 115.299L106.036 116.131L101.759 111.271L102.704 110.439L104.455 112.428L106.822 110.345L105.071 108.356L106.016 107.524L110.293 112.384Z" fill="#D9D9DC"/>
<path opacity="0.2" d="M101.738 112.696C101.67 112.724 101.59 112.77 101.498 112.834C101.314 112.961 101.224 113.111 101.227 113.284C101.229 113.468 101.304 113.717 101.455 114.031C101.831 114.839 102.567 116.143 103.661 117.941L99.853 120.588L96.16 115.274L97.183 114.563L100.2 118.902L102.069 117.603C101.125 115.992 100.511 114.872 100.229 114.241C100.004 113.736 99.909 113.32 99.945 112.993C99.974 112.671 100.159 112.392 100.501 112.155C100.684 112.027 100.894 111.916 101.129 111.82L101.738 112.696Z" fill="#D9D9DC"/>
<path opacity="0.2" d="M92.9976 123.199C92.8188 123.068 92.6661 122.909 92.5396 122.722C92.4097 122.547 92.2714 122.321 92.1247 122.046L90.245 118.52L91.2192 118L91.6651 118.837C91.7773 117.925 92.2888 117.226 93.1995 116.741C93.6089 116.523 93.9979 116.41 94.3664 116.404C94.739 116.405 95.068 116.497 95.356 116.679C95.643 116.861 95.872 117.111 96.041 117.429C96.489 118.269 96.338 119.075 95.589 119.846C95.369 120.063 95.071 120.312 94.696 120.594C94.324 120.883 93.9467 121.17 93.5641 121.456L93.3008 121.65C93.5327 122.034 93.7999 122.264 94.1025 122.338C94.4051 122.412 94.772 122.335 95.202 122.105C95.527 121.932 95.77 121.708 95.931 121.431C96.092 121.155 96.141 120.839 96.078 120.483L97.274 120.253C97.404 120.836 97.343 121.377 97.091 121.874C96.839 122.37 96.392 122.79 95.75 123.133C95.22 123.415 94.72 123.564 94.2476 123.58C93.7794 123.603 93.3627 123.476 92.9976 123.199ZM93.4781 117.748C93.0404 117.982 92.7405 118.286 92.5786 118.663C92.4096 119.043 92.3671 119.406 92.4513 119.751C92.4861 119.986 92.6107 120.305 92.8252 120.707L93.0885 120.512C93.4011 120.282 93.694 120.058 93.9675 119.84C94.2377 119.632 94.453 119.45 94.614 119.292C94.822 119.071 94.962 118.857 95.032 118.647C95.094 118.442 95.069 118.233 94.956 118.021C94.828 117.781 94.635 117.63 94.3753 117.569C94.116 117.508 93.8169 117.568 93.4781 117.748Z" fill="#D9D9DC"/>
<path opacity="0.2" d="M89.0122 126.863C89.3024 126.748 89.5984 126.712 89.9001 126.756C90.2048 126.807 90.4804 126.926 90.7269 127.112C90.966 127.301 91.1432 127.541 91.2586 127.831L90.3324 128.2C90.2584 128.014 90.1278 127.88 89.9406 127.8C89.7534 127.719 89.5668 127.716 89.3808 127.79C89.1873 127.867 89.054 127.997 88.9808 128.181C88.9002 128.369 88.8968 128.555 88.9708 128.741L88.0446 129.11C87.9291 128.82 87.897 128.522 87.9481 128.217C87.9918 127.916 88.1068 127.642 88.2931 127.395C88.4824 127.156 88.7221 126.979 89.0122 126.863ZM85.0872 120.669L86.7522 124.854L88.1004 119.47L89.049 119.093L91.4466 125.119L90.3194 125.568L88.6855 121.461L87.295 126.771L86.3576 127.144L83.96 121.118L85.0872 120.669Z" fill="#D9D9DC"/>
<path opacity="0.2" d="M84.2269 127.819L83.0047 128.134L82.3447 125.573L79.2834 126.362L79.9434 128.923L78.7212 129.238L77.1012 122.952L78.3234 122.637L78.9864 125.21L82.0477 124.421L81.3847 121.848L82.6069 121.533L84.2269 127.819Z" fill="#D9D9DC"/>
<path opacity="0.2" d="M69.6441 127.274C69.3833 127.148 69.176 126.957 69.0221 126.7C68.8603 126.445 68.7637 126.162 68.7325 125.854C68.6901 125.434 68.7682 125.058 68.9667 124.726C69.1572 124.395 69.4381 124.126 69.8094 123.921C70.1736 123.724 70.5893 123.602 71.0566 123.555C71.6743 123.492 72.2459 123.566 72.7713 123.777C73.2966 123.988 73.7259 124.317 74.059 124.763L73.1389 125.516C72.5981 124.915 71.9555 124.652 71.211 124.727C70.815 124.767 70.511 124.886 70.2989 125.083C70.0797 125.289 69.9853 125.543 70.0157 125.844C70.0493 126.177 70.202 126.381 70.4737 126.458C70.7384 126.543 71.1241 126.56 71.631 126.509L72.2013 126.451L72.3033 127.461L71.7449 127.517C71.3172 127.561 70.9941 127.649 70.7757 127.783C70.5501 127.926 70.4521 128.144 70.4817 128.437C70.5097 128.714 70.6334 128.91 70.8529 129.024C71.0733 129.145 71.3418 129.19 71.6586 129.158C71.9754 129.126 72.2854 129.027 72.5886 128.86C72.8839 128.695 73.1475 128.492 73.3793 128.252L74.1892 129.023C73.8743 129.391 73.5083 129.688 73.0911 129.914C72.6659 130.141 72.2039 130.279 71.7049 130.33C71.2852 130.372 70.8935 130.336 70.5298 130.22C70.1669 130.113 69.8681 129.927 69.6334 129.663C69.3907 129.399 69.2494 129.07 69.2094 128.674C69.1574 128.159 69.3023 127.692 69.6441 127.274Z" fill="#D9D9DC"/>
<path opacity="0.2" d="M62.3077 129.474C62.215 129.273 62.1584 129.06 62.1381 128.836C62.1096 128.619 62.0979 128.355 62.1029 128.043L62.1678 124.047L63.2717 124.065L63.2563 125.013C63.7964 124.27 64.5824 123.907 65.6143 123.923C66.0782 123.931 66.4728 124.021 66.798 124.195C67.1231 124.376 67.3673 124.616 67.5304 124.915C67.6936 125.213 67.7723 125.543 67.7664 125.903C67.751 126.854 67.2287 127.486 66.1995 127.797C65.9021 127.881 65.5208 127.954 65.0557 128.019C64.5905 128.091 64.1213 128.16 63.6482 128.224L63.3235 128.267C63.3402 128.715 63.4629 129.045 63.6915 129.257C63.92 129.469 64.2783 129.578 64.7662 129.586C65.1342 129.592 65.4555 129.514 65.7302 129.35C66.0049 129.186 66.201 128.934 66.3186 128.591L67.4766 128.97C67.3073 129.544 66.992 129.987 66.5309 130.299C66.0698 130.612 65.4753 130.762 64.7474 130.75C64.1474 130.74 63.6372 130.628 63.2166 130.413C62.7959 130.206 62.493 129.894 62.3077 129.474ZM65.3697 124.94C64.8738 124.931 64.4638 125.053 64.1397 125.304C63.8076 125.554 63.5947 125.851 63.5011 126.193C63.4175 126.416 63.372 126.755 63.3646 127.211L63.6893 127.169C64.0742 127.119 64.4391 127.065 64.7841 127.006C65.121 126.956 65.3979 126.9 65.6149 126.84C65.9045 126.748 66.1304 126.628 66.2929 126.479C66.4473 126.329 66.5265 126.134 66.5304 125.895C66.5348 125.623 66.4385 125.397 66.2413 125.218C66.0442 125.039 65.7537 124.946 65.3697 124.94Z" fill="#D9D9DC"/>
<path opacity="0.2" d="M60.0611 130.432L54.6281 129.78L55.3998 123.346L56.6509 123.496L56.0206 128.751L58.9516 129.102L59.5819 123.848L60.8329 123.998L60.0611 130.432Z" fill="#D9D9DC"/>
<path opacity="0.2" d="M48.6624 121.802L49.8403 122.087L48.7799 126.461L52.989 122.851L53.9803 123.091L52.4533 129.389L51.2754 129.103L52.3161 124.812L48.115 128.337L47.1354 128.099L48.6624 121.802Z" fill="#D9D9DC"/>
<path opacity="0.2" d="M44.7295 120.245C45.3373 120.47 45.8127 120.799 46.1555 121.233C46.4956 121.674 46.6931 122.178 46.7482 122.744C46.793 123.315 46.704 123.913 46.4812 124.539C46.2407 125.167 45.9154 125.677 45.5052 126.072C45.0848 126.471 44.6033 126.723 44.0607 126.83C43.5181 126.936 42.9467 126.878 42.3464 126.657C41.6785 126.41 41.1707 126.03 40.8228 125.518C40.4721 125.013 40.3272 124.447 40.388 123.821L41.6792 123.928C41.6744 124.31 41.7724 124.645 41.9732 124.932C42.1665 125.217 42.4319 125.422 42.7696 125.546C43.3249 125.752 43.8158 125.716 44.2424 125.438C44.6588 125.166 44.9886 124.712 45.2319 124.077C45.463 123.429 45.5053 122.865 45.3589 122.384C45.2124 121.903 44.8653 121.562 44.3176 121.359C43.5897 121.09 42.9809 121.249 42.4911 121.836L41.395 121.098C41.8167 120.58 42.3147 120.248 42.889 120.102C43.4632 119.956 44.0767 120.004 44.7295 120.245Z" fill="#D9D9DC"/>
<path opacity="0.2" d="M26.9869 109.694C27.6278 110.249 28.058 110.87 28.2774 111.558C28.4908 112.24 28.5015 112.942 28.3094 113.665C28.1061 114.389 27.7111 115.089 27.1244 115.766C26.5378 116.443 25.9035 116.931 25.2216 117.23C24.5285 117.529 23.8291 117.622 23.1233 117.508C22.4115 117.389 21.7352 117.051 21.0942 116.496C20.4532 115.941 20.023 115.32 19.8036 114.632C19.5842 113.945 19.5761 113.239 19.7795 112.516C19.9716 111.793 20.3609 111.093 20.9476 110.416C21.5342 109.738 22.1741 109.25 22.8673 108.951C23.5491 108.653 24.2459 108.563 24.9577 108.682C25.6695 108.801 26.3459 109.138 26.9869 109.694ZM26.209 110.591C25.537 109.999 24.8262 109.775 24.0766 109.919C23.327 110.064 22.6196 110.52 21.9544 111.288C21.2891 112.056 20.9411 112.818 20.9103 113.574C20.8794 114.331 21.2 115.006 21.872 115.598C22.544 116.191 23.2518 116.412 23.9954 116.263C24.7337 116.119 25.4411 115.663 26.1176 114.894C26.7889 114.131 27.1399 113.372 27.1708 112.615C27.2016 111.859 26.881 111.184 26.209 110.591Z" fill="#D9D9DC"/>
<path opacity="0.2" d="M18.3106 110.726L17.4763 109.782L19.4548 108.034L17.3652 105.669L15.3867 107.417L14.5525 106.473L19.4087 102.182L20.243 103.127L18.2555 104.882L20.3451 107.248L22.3325 105.492L23.1668 106.436L18.3106 110.726Z" fill="#D9D9DC"/>
<path opacity="0.2" d="M18.0157 102.149C17.9878 102.081 17.9419 102.001 17.8781 101.909C17.7504 101.725 17.6002 101.635 17.4274 101.639C17.2435 101.64 16.9945 101.716 16.6805 101.866C15.8723 102.243 14.569 102.979 12.7708 104.073L10.1237 100.265L15.4373 96.5709L16.1487 97.5949L11.8092 100.611L13.1088 102.481C14.7194 101.536 15.8399 100.923 16.4705 100.64C16.9759 100.415 17.3918 100.321 17.7183 100.356C18.0402 100.386 18.3197 100.571 18.5568 100.912C18.6845 101.096 18.7961 101.305 18.8915 101.54L18.0157 102.149Z" fill="#D9D9DC"/>
<path opacity="0.2" d="M7.52398 93.4251C7.65538 93.2464 7.81438 93.0938 8.00078 92.9674C8.17638 92.8376 8.40198 92.6994 8.67738 92.5528L12.2046 90.675L12.7234 91.6495L11.8866 92.095C12.7986 92.2076 13.497 92.7195 13.982 93.6304C14.2 94.04 14.312 94.429 14.3178 94.7975C14.3166 95.1699 14.2248 95.4999 14.0425 95.7869C13.8602 96.0739 13.6101 96.3029 13.2923 96.4719C12.452 96.9189 11.6465 96.7679 10.8757 96.0179C10.659 95.7979 10.4098 95.5009 10.1282 95.1249C9.83948 94.7527 9.55248 94.3754 9.26708 93.9926L9.07248 93.7291C8.68828 93.9608 8.45888 94.228 8.38438 94.5305C8.30978 94.833 8.38718 95.1999 8.61648 95.6309C8.78938 95.9549 9.01398 96.1979 9.29008 96.3589C9.56618 96.5209 9.88238 96.5699 10.2387 96.5069L10.4679 97.7039C9.88428 97.8329 9.34408 97.7719 8.84728 97.5199C8.35058 97.2679 7.93108 96.8199 7.58898 96.1779C7.30708 95.6479 7.15828 95.1469 7.14258 94.675C7.11988 94.2067 7.24698 93.7901 7.52398 93.4251ZM12.9745 93.9085C12.7414 93.4707 12.4367 93.1707 12.0603 93.0085C11.6802 92.8393 11.3177 92.7967 10.9726 92.8806C10.7373 92.9153 10.4184 93.0398 10.0159 93.254L10.2105 93.5175C10.4404 93.8301 10.6644 94.1232 10.8826 94.3968C11.0899 94.6671 11.2726 94.8825 11.4306 95.0429C11.6507 95.2519 11.8654 95.3919 12.0747 95.4619C12.2803 95.5239 12.4891 95.4989 12.7009 95.3859C12.941 95.2589 13.0917 95.0649 13.1531 94.8058C13.2145 94.5465 13.1549 94.2474 12.9745 93.9085Z" fill="#D9D9DC"/>
<path opacity="0.2" d="M3.88979 89.3974C4.00358 89.6879 4.03786 89.9838 3.99261 90.285C3.93992 90.5892 3.81984 90.8639 3.63238 91.1092C3.442 91.347 3.20155 91.5228 2.91105 91.6366L2.54779 90.7092C2.73401 90.6362 2.86791 90.5065 2.94947 90.3199C3.03103 90.1333 3.03534 89.9469 2.9624 89.7606C2.88654 89.567 2.75677 89.4331 2.57308 89.359C2.38648 89.2774 2.20007 89.2731 2.01385 89.346L1.65059 88.4186C1.9411 88.3048 2.23844 88.2743 2.54261 88.327C2.84386 88.3722 3.11712 88.4886 3.36239 88.676C3.6002 88.8664 3.776 89.1069 3.88979 89.3974ZM10.0993 85.5088L5.90928 87.1501L11.281 88.5257L11.653 89.4754L5.61928 91.8388L5.17728 90.7102L9.28908 89.0997L3.99125 87.6822L3.62361 86.7437L9.65728 84.3803L10.0993 85.5088Z" fill="#D9D9DC"/>
<path opacity="0.2" d="M2.90264 84.6382L2.58764 83.416L5.14848 82.756L4.35943 79.6947L1.79864 80.3547L1.48364 79.1325L7.76928 77.5125L8.08428 78.7347L5.51178 79.3977L6.30078 82.459L8.87328 81.796L9.18828 83.0182L2.90264 84.6382Z" fill="#D9D9DC"/>
<path opacity="0.2" d="M3.45778 70.0456C3.58346 69.7849 3.77454 69.5776 4.03102 69.4236C4.2867 69.2618 4.56898 69.1653 4.87788 69.1341C5.29758 69.0917 5.67358 69.1697 6.00558 69.3682C6.33688 69.5588 6.60528 69.8397 6.81078 70.211C7.00758 70.5751 7.12958 70.9908 7.17678 71.4581C7.23918 72.0759 7.16498 72.6474 6.95398 73.1728C6.74298 73.6982 6.41438 74.1274 5.96798 74.4605L5.21498 73.5405C5.81638 72.9997 6.07948 72.357 6.00428 71.6126C5.96428 71.2166 5.84558 70.9125 5.64818 70.7004C5.44198 70.4812 5.18838 70.3868 4.88748 70.4172C4.55482 70.4508 4.35022 70.6035 4.27366 70.8753C4.18838 71.1399 4.17134 71.5257 4.22254 72.0326L4.28014 72.6028L3.27034 72.7048L3.21394 72.1464C3.17074 71.7188 3.0821 71.3957 2.94802 71.1772C2.80522 70.9516 2.5873 70.8536 2.29426 70.8832C2.01706 70.9112 1.82154 71.035 1.7077 71.2545C1.58594 71.4748 1.54106 71.7434 1.57306 72.0602C1.60506 72.377 1.70438 72.687 1.87102 72.9902C2.03686 73.2854 2.2395 73.549 2.47894 73.7808L1.70866 74.5907C1.34082 74.2758 1.04382 73.9098 0.817663 73.4926C0.590703 73.0675 0.452024 72.6054 0.401624 72.1065C0.359224 71.6867 0.395663 71.295 0.510943 70.9313C0.618303 70.5684 0.804144 70.2696 1.06846 70.0349C1.33198 69.7923 1.66174 69.651 2.05774 69.611C2.57254 69.559 3.03922 69.7038 3.45778 70.0456Z" fill="#D9D9DC"/>
<path opacity="0.2" d="M1.28618 62.6879C1.4881 62.5959 1.7013 62.5401 1.92578 62.5206C2.14242 62.4929 2.40674 62.4822 2.71874 62.4885L6.71478 62.5684L6.69268 63.6724L5.74468 63.6534C6.48608 64.1965 6.84648 64.984 6.82588 66.016C6.81658 66.48 6.72468 66.8743 6.55008 67.1989C6.36758 67.5234 6.12658 67.7667 5.82718 67.9288C5.52788 68.0909 5.19818 68.1683 4.83818 68.1611C3.88618 68.1421 3.25642 67.6173 2.9489 66.5867C2.86682 66.2889 2.79442 65.9073 2.7317 65.4419C2.66098 64.9763 2.59434 64.5068 2.53178 64.0333L2.49026 63.7084C2.04178 63.7234 1.71122 63.8449 1.49858 64.0727C1.28594 64.3005 1.17474 64.6585 1.16498 65.1465C1.15762 65.5145 1.23522 65.8361 1.39778 66.1115C1.56034 66.3869 1.8125 66.584 2.15426 66.7029L1.77098 67.8597C1.19818 67.6881 0.756337 67.3712 0.445457 66.9088C0.134577 66.4464 -0.0135829 65.8512 0.00097711 65.1232C0.0129771 64.5232 0.127217 64.0133 0.343697 63.5934C0.552177 63.1734 0.866337 62.8716 1.28618 62.6879ZM5.81038 65.7676C5.82038 65.2716 5.70048 64.861 5.45088 64.5359C5.20148 64.2028 4.90558 63.9888 4.56338 63.8939C4.34098 63.8094 4.00178 63.7626 3.54578 63.7535L3.5873 64.0785C3.63562 64.4636 3.68834 64.8288 3.74546 65.1741C3.79474 65.5112 3.84922 65.7884 3.9089 66.0057C3.99914 66.2956 4.11866 66.5221 4.26746 66.6851C4.41642 66.8401 4.61088 66.9201 4.85088 66.9249C5.12288 66.9303 5.34888 66.8348 5.52888 66.6383C5.70888 66.4418 5.80278 66.1516 5.81038 65.7676Z" fill="#D9D9DC"/>
<path opacity="0.2" d="M0.361954 60.463L1.01859 55.0457L7.43377 55.8233L7.28257 57.0707L2.04351 56.4357L1.68927 59.3582L6.92837 59.9932L6.77717 61.2406L0.361954 60.463Z" fill="#D9D9DC"/>
<path opacity="0.2" d="M8.94388 49.0649L8.65738 50.2426L4.28489 49.1791L7.89168 53.3908L7.65068 54.3819L1.35422 52.8505L1.64065 51.6728L5.93158 52.7164L2.40919 48.5129L2.64741 47.5335L8.94388 49.0649Z" fill="#D9D9DC"/>
<path opacity="0.2" d="M10.5087 45.1419C10.2836 45.7496 9.95398 46.2246 9.51988 46.5672C9.07838 46.9069 8.57448 47.1042 8.00818 47.1588C7.43718 47.2032 6.83898 47.1138 6.21358 46.8906C5.58618 46.6496 5.07558 46.3239 4.68158 45.9135C4.28295 45.4928 4.03058 45.0111 3.92451 44.4685C3.81844 43.9258 3.87658 43.3544 4.09893 42.7543C4.3463 42.0866 4.72628 41.579 5.23898 41.2315C5.74418 40.8812 6.30958 40.7366 6.93538 40.7978L6.82808 42.089C6.44598 42.084 6.11118 42.1817 5.82358 42.3823C5.53878 42.5754 5.33378 42.8407 5.20878 43.1783C5.00308 43.7334 5.03868 44.2244 5.31568 44.6512C5.58798 45.0677 6.04148 45.3978 6.67638 45.6416C7.32428 45.8731 7.88858 45.9158 8.36928 45.7697C8.84998 45.6237 9.19178 45.2768 9.39468 44.7292C9.66428 44.0015 9.50598 43.3926 8.91978 42.9024L9.65848 41.8068C10.176 42.2289 10.5076 42.7271 10.6531 43.3015C10.7986 43.8758 10.7505 44.4893 10.5087 45.1419Z" fill="#D9D9DC"/>
<path opacity="0.2" d="M21.0704 27.4003C20.5147 28.0409 19.893 28.4706 19.2053 28.6896C18.5229 28.9025 17.8204 28.9126 17.0979 28.7201C16.3745 28.5162 15.6744 28.1207 14.9976 27.5336C14.3207 26.9465 13.8334 26.3119 13.5354 25.6298C13.2367 24.9365 13.1445 24.237 13.2589 23.5313C13.3785 22.8196 13.7161 22.1435 14.2718 21.5029C14.8275 20.8623 15.4491 20.4326 16.1368 20.2136C16.8245 19.9947 17.53 19.9871 18.2533 20.191C18.9759 20.3835 19.6756 20.7734 20.3524 21.3605C21.0293 21.9476 21.517 22.5879 21.8158 23.2812C22.1137 23.9633 22.2029 24.6602 22.0833 25.3719C21.9637 26.0836 21.626 26.7597 21.0704 27.4003ZM20.1729 26.6218C20.7661 25.9503 20.9907 25.2396 20.8468 24.4899C20.7028 23.7402 20.2471 23.0325 19.4796 22.3667C18.7121 21.7009 17.9501 21.3524 17.1937 21.321C16.4372 21.2896 15.7624 21.6098 15.1692 22.2813C14.576 22.9529 14.354 23.6606 14.5032 24.4042C14.6464 25.1427 15.1021 25.8504 15.8704 26.5274C16.6326 27.1992 17.392 27.5508 18.1485 27.5822C18.905 27.6135 19.5798 27.2934 20.1729 26.6218Z" fill="#D9D9DC"/>
<path opacity="0.2" d="M20.028 18.7401L20.9727 17.9064L22.7196 19.8858L25.0858 17.7974L23.3389 15.818L24.2836 14.9843L28.5715 19.8428L27.6268 20.6765L25.8719 18.6881L23.5057 20.7765L25.2605 22.7649L24.3158 23.5986L20.028 18.7401Z" fill="#D9D9DC"/>
<path opacity="0.2" d="M28.6223 18.4371C28.6904 18.4092 28.7704 18.3633 28.8623 18.2994C29.046 18.1718 29.1361 18.0215 29.1328 17.8487C29.1314 17.6648 29.0556 17.4158 28.9055 17.1018C28.5285 16.2936 27.7929 14.9904 26.6986 13.1921L30.5066 10.545L34.2002 15.8586L33.1769 16.57L30.1604 12.2306L28.2908 13.5302C29.2352 15.1407 29.8488 16.2613 30.1314 16.8918C30.3562 17.3972 30.4507 17.8131 30.415 18.1396C30.3858 18.4615 30.2006 18.741 29.8595 18.9782C29.6758 19.1058 29.4663 19.2174 29.231 19.3128L28.6223 18.4371Z" fill="#D9D9DC"/>
<path opacity="0.2" d="M37.3616 7.95726C37.5403 8.08876 37.6927 8.24786 37.8191 8.43436C37.9487 8.61006 38.0867 8.83566 38.2332 9.11116L40.1085 12.6398L39.1337 13.1579L38.6888 12.3208C38.5755 13.2327 38.0632 13.9308 37.1519 14.4151C36.7421 14.6329 36.353 14.7445 35.9846 14.7501C35.6123 14.7486 35.2826 14.6566 34.9953 14.4741C34.708 14.2916 34.4799 14.0414 34.311 13.7235C33.8642 12.8828 34.0159 12.0774 34.7662 11.3072C34.9863 11.0906 35.2843 10.8416 35.6602 10.5602C36.0324 10.2718 36.41 9.98506 36.793 9.69996L37.0566 9.50546C36.8251 9.12116 36.5582 8.89156 36.2557 8.81686C35.9532 8.74206 35.5865 8.81916 35.1556 9.04816C34.8306 9.22086 34.5875 9.44526 34.4262 9.72126C34.2648 9.99726 34.2154 10.3135 34.278 10.6698L33.0812 10.8982C32.9521 10.3145 33.0138 9.77426 33.2663 9.27766C33.5188 8.78116 33.9665 8.36196 34.6093 8.02036C35.1391 7.73876 35.64 7.59026 36.1121 7.57496C36.5803 7.55256 36.9969 7.67996 37.3616 7.95726ZM36.8745 13.4074C37.3125 13.1746 37.6127 12.8701 37.7751 12.4939C37.9446 12.1139 37.9875 11.7514 37.9037 11.4063C37.8692 11.1709 37.745 10.8519 37.531 10.4493L37.2674 10.6437C36.9546 10.8734 36.6613 11.0972 36.3876 11.3152C36.1172 11.5223 35.9016 11.7048 35.741 11.8627C35.5317 12.0826 35.3921 12.2973 35.3221 12.5066C35.2593 12.7121 35.2841 12.9209 35.3968 13.1328C35.5244 13.373 35.7179 13.5239 35.9771 13.5854C36.2363 13.647 36.5354 13.5876 36.8745 13.4074Z" fill="#D9D9DC"/>
<path opacity="0.2" d="M41.391 4.32191C41.1004 4.43544 40.8045 4.46946 40.5033 4.42395C40.1992 4.37099 39.9246 4.25067 39.6795 4.063C39.4418 3.87241 39.2662 3.63181 39.1527 3.34121L40.0804 2.97876C40.1532 3.16505 40.2828 3.29905 40.4694 3.38078C40.6559 3.4625 40.8423 3.46698 41.0286 3.3942C41.2223 3.3185 41.3563 3.18885 41.4306 3.00523C41.5123 2.8187 41.5168 2.63229 41.444 2.44601L42.3717 2.08356C42.4853 2.37417 42.5156 2.67154 42.4626 2.97566C42.4171 3.27687 42.3005 3.55003 42.1128 3.79513C41.9222 4.03278 41.6816 4.20837 41.391 4.32191ZM45.2742 10.5348L43.6366 6.34336L42.2563 11.7139L41.3062 12.0851L38.9481 6.04936L40.0771 5.60826L41.684 9.72146L43.1061 4.42486L44.045 4.05804L46.4031 10.0938L45.2742 10.5348Z" fill="#D9D9DC"/>
<path opacity="0.2" d="M46.1521 3.36451L47.3723 3.05052L48.0302 5.60719L51.0867 4.82077L50.4288 2.26406L51.649 1.95007L53.2638 8.22569L52.0436 8.53959L51.3827 5.97129L48.3263 6.75779L48.9871 9.32609L47.7669 9.64009L46.1521 3.36451Z" fill="#D9D9DC"/>
<path opacity="0.2" d="M60.7734 3.74649C61.0366 3.87369 61.2458 4.06689 61.401 4.32609C61.5642 4.58449 61.6614 4.86969 61.6926 5.18171C61.735 5.60571 61.6558 5.98531 61.455 6.32051C61.2622 6.65491 60.9782 6.92571 60.603 7.13291C60.235 7.33131 59.815 7.45411 59.343 7.50131C58.719 7.56371 58.1418 7.48811 57.6114 7.27451C57.081 7.06091 56.6478 6.72851 56.3118 6.27731L57.2418 5.51771C57.7874 6.12571 58.4362 6.39211 59.1882 6.31691C59.5882 6.27691 59.8954 6.15731 60.1098 5.95811C60.3314 5.75011 60.427 5.49411 60.3966 5.19011C60.363 4.85409 60.209 4.64729 59.9346 4.56969C59.6674 4.48329 59.2778 4.46569 58.7658 4.51689L58.1898 4.57449L58.0878 3.55449L58.6518 3.49809C59.0838 3.45489 59.4102 3.36569 59.631 3.23049C59.859 3.08649 59.9582 2.86649 59.9286 2.57049C59.9006 2.29049 59.7758 2.09289 59.5542 1.97769C59.3318 1.85449 59.0606 1.80889 58.7406 1.84089C58.4206 1.87289 58.1074 1.97289 57.801 2.14089C57.5026 2.30809 57.2362 2.51249 57.0018 2.75409L56.1846 1.97529C56.503 1.60409 56.873 1.30449 57.2946 1.07649C57.7242 0.847686 58.191 0.708086 58.695 0.657686C59.119 0.615286 59.5146 0.652486 59.8818 0.769286C60.2482 0.878086 60.5498 1.06609 60.7866 1.33329C61.0314 1.59969 61.1738 1.93289 61.2138 2.33289C61.2658 2.85289 61.119 3.32409 60.7734 3.74649Z" fill="#D9D9DC"/>
<path opacity="0.2" d="M68.0723 1.70854C68.165 1.91007 68.2216 2.12301 68.2419 2.34737C68.2704 2.56387 68.2821 2.82809 68.2771 3.14005L68.2122 7.13548L67.1083 7.11758L67.1237 6.16968C66.5836 6.91308 65.7976 7.27638 64.7657 7.25958C64.3018 7.25208 63.9072 7.16168 63.582 6.98838C63.2569 6.80708 63.0127 6.56708 62.8496 6.26838C62.6864 5.96968 62.6077 5.64038 62.6136 5.28038C62.629 4.32853 63.1513 3.69693 64.1805 3.38559C64.4779 3.30241 64.8592 3.22859 65.3243 3.16413C65.7895 3.09167 66.2587 3.02327 66.7318 2.95894L67.0565 2.91621C67.0398 2.46788 66.9171 2.13784 66.6886 1.92611C66.46 1.71437 66.1017 1.60454 65.6138 1.59662C65.2458 1.59065 64.9245 1.66944 64.6498 1.833C64.3751 1.99657 64.179 2.24942 64.0614 2.59155L62.9034 2.21271C63.0727 1.63938 63.388 1.19644 63.8491 0.883884C64.3102 0.571334 64.9047 0.420964 65.6327 0.432774C66.2326 0.442514 66.7428 0.554814 67.1634 0.769664C67.5841 0.976524 67.887 1.28948 68.0723 1.70854ZM65.0103 6.24348C65.5062 6.25148 65.9162 6.13008 66.2403 5.87938C66.5724 5.62868 66.7853 5.33208 66.8789 4.9896C66.9625 4.76693 67.008 4.42762 67.0154 3.97168L66.6907 4.01442C66.3058 4.06418 65.9409 4.11826 65.5959 4.17667C65.259 4.22721 64.9821 4.28272 64.7651 4.34321C64.4755 4.43452 64.2496 4.55487 64.0871 4.70425C63.9327 4.85376 63.8535 5.04848 63.8496 5.28848C63.8452 5.56048 63.9415 5.78598 64.1387 5.96528C64.3358 6.14448 64.6263 6.23718 65.0103 6.24348Z" fill="#D9D9DC"/>
<path opacity="0.2" d="M70.3388 0.76355L75.7708 1.42378L74.989 7.85649L73.7382 7.70439L74.3767 2.45107L71.4463 2.0949L70.8078 7.34819L69.557 7.19619L70.3388 0.76355Z" fill="#D9D9DC"/>
<path opacity="0.2" d="M81.7155 9.40967L80.538 9.12237L81.6046 4.75062L77.3903 8.35447L76.3994 8.11277L77.9352 1.81738L79.1127 2.10463L78.0661 6.39477L82.272 2.87538L83.2513 3.11429L81.7155 9.40967Z" fill="#D9D9DC"/>
<path opacity="0.2" d="M85.6382 10.9729C85.0308 10.7473 84.556 10.4173 84.2138 9.98289C83.8744 9.54109 83.6777 9.03699 83.6235 8.47069C83.5796 7.89969 83.6695 7.30149 83.8933 6.67629C84.1348 6.04919 84.4609 5.53879 84.8717 5.14519C85.2928 4.74691 85.7747 4.49496 86.3174 4.38936C86.8602 4.28376 87.4315 4.3424 88.0314 4.56527C88.6989 4.81322 89.2061 5.19369 89.5532 5.70669C89.9031 6.21219 90.0472 6.77769 89.9854 7.40339L88.6943 7.29499C88.6997 6.91299 88.6022 6.57799 88.4019 6.29029C88.2091 6.00529 87.944 5.80009 87.6065 5.67469C87.0515 5.46859 86.5605 5.50379 86.1335 5.78039C85.7167 6.05229 85.3862 6.50549 85.1419 7.14019C84.9098 7.78789 84.8666 8.35219 85.0122 8.83299C85.1579 9.31379 85.5045 9.65589 86.0519 9.85929C86.7793 10.1295 87.3884 9.97179 87.8791 9.38599L88.9741 10.1256C88.5515 10.6428 88.053 10.974 87.4786 11.119C86.9041 11.264 86.2906 11.2153 85.6382 10.9729Z" fill="#D9D9DC"/>
</svg>
