<svg width="67" height="67" viewBox="0 0 67 67" fill="none" xmlns="http://www.w3.org/2000/svg">
    <path d="M28.1742 47.8447H28.1994C28.7885 47.8447 29.3731 47.6026 29.7898 47.1859L51.1849 25.7908C52.0604 24.9153 52.0609 23.4867 51.1856 22.61L28.1742 47.8447ZM28.1742 47.8447C27.5786 47.8383 26.9949 47.5866 26.5814 47.1579L26.5812 47.1577L15.7873 35.9698L15.7872 35.9697C14.9268 35.0781 14.9522 33.6508 15.8442 32.79L15.8445 32.7897C16.2665 32.3822 16.8176 32.1598 17.4048 32.1598C18.0241 32.1598 18.594 32.4017 19.0239 32.8471L27.3447 41.4714L28.2283 42.3872L29.1282 41.4874L48.0055 22.6107L47.1216 21.7268L48.0055 22.6107C48.4318 22.1844 48.9926 21.9519 49.5959 21.9519C50.1989 21.9519 50.7593 22.1839 51.1852 22.6095L28.1742 47.8447Z"
          fill="#EED0AD" stroke="#1C1D21" stroke-width="2.5"/>
    <circle cx="33.5" cy="33.5" r="32.5" stroke="#EED0AD" stroke-width="2"/>
</svg>
