<svg width="10" height="14" viewBox="0 0 10 14" fill="none" xmlns="http://www.w3.org/2000/svg">
<path fill-rule="evenodd" clip-rule="evenodd" d="M0 4.80769C0 2.11538 2.19231 0 5 0C7.80769 0 10 2.11538 10 4.80769C10 5.40385 9.76923 6.59615 9.38462 7.46154C8.13462 10.3269 5.40385 13.5769 5.28846 13.7115C5.21154 13.7885 5.11538 13.8462 5 13.8462C4.88462 13.8462 4.78846 13.8077 4.71154 13.7115C4.59615 13.5769 1.86538 10.3269 0.615385 7.46154C0.230769 6.59615 0 5.40385 0 4.80769ZM3.07685 5.00017C3.07685 6.05786 3.94223 6.92325 4.99993 6.92325C6.05762 6.92325 6.923 6.05786 6.923 5.00017C6.923 3.94248 6.05762 3.07709 4.99993 3.07709C3.94223 3.07709 3.07685 3.94248 3.07685 5.00017Z" fill="#EED0AD"/>
</svg>
