<svg width="41" height="52" viewBox="0 0 41 52" fill="none" xmlns="http://www.w3.org/2000/svg">
<path d="M27.5807 4.2677C27.5807 4.2677 25.3995 4.39681 23.97 7.59424C22.5399 10.7915 18.9631 26.0377 18.9631 26.0377L17.7098 28.1083C17.7098 28.1083 14.2197 27.8807 10.8366 32.5058C10.8366 32.5058 6.29449 29.464 4.0466 32.4553C1.79935 35.4467 1.4257 40.735 5.72723 40.2213C10.0288 39.7075 11.0241 36.0291 11.892 34.5958C12.7607 33.1621 15.4822 28.7904 18.7001 30.3045C21.9186 31.8187 18.9113 38.3404 18.3223 39.0725C17.7333 39.8046 13.4221 43.4461 16.3622 47.5791C19.3009 51.7095 24.1137 45.9192 23.4146 42.883C22.7146 39.8471 22.7243 40.2581 20.9625 38.7858C20.9625 38.7858 22.8182 33.0894 21.4763 30.7527L22.9651 28.5356C22.9651 28.5356 38.385 16.2559 39.4449 12.1098L23.3598 23.332L27.5807 4.2677ZM9.67182 33.0151C10.7597 34.165 10.3378 36.3309 8.7289 37.8518C7.12059 39.3728 4.93386 39.6706 3.8474 38.5204C2.75748 37.3679 3.18175 35.2034 4.78904 33.6834C6.39735 32.1624 8.58298 31.8635 9.67182 33.0151ZM22.041 44.2718C21.6757 46.4535 20.1098 48.01 18.5478 47.7481C16.9841 47.4851 16.0174 45.503 16.3831 43.32C16.7495 41.1372 18.3138 39.581 19.8765 39.8431C21.4381 40.1062 22.4069 42.0882 22.041 44.2718Z" fill="#D9D9DC"/>
</svg>
